<svg xmlns="http://www.w3.org/2000/svg" xmlns:xlink="http://www.w3.org/1999/xlink" viewBox="0 0 1080 1080"><defs><style>.cls-1{fill:#fff;opacity:0;}.cls-2{fill:url(#linear-gradient);}.cls-3{fill:url(#linear-gradient-2);}.cls-4{fill:url(#linear-gradient-3);}.cls-5{fill:url(#linear-gradient-4);}.cls-6{fill:url(#linear-gradient-5);}</style><linearGradient id="linear-gradient" x1="323.56" y1="208.88" x2="754.77" y2="208.88" gradientUnits="userSpaceOnUse"><stop offset="0" stop-color="#2d70a6"/><stop offset="0.15" stop-color="#003969"/><stop offset="1"/></linearGradient><linearGradient id="linear-gradient-2" x1="389.79" y1="301.16" x2="460.16" y2="301.16" xlink:href="#linear-gradient"/><linearGradient id="linear-gradient-3" x1="624.14" y1="301.16" x2="694.51" y2="301.16" xlink:href="#linear-gradient"/><linearGradient id="linear-gradient-4" x1="322.97" y1="694.66" x2="754.78" y2="694.66" xlink:href="#linear-gradient"/><linearGradient id="linear-gradient-5" x1="620.19" y1="911.69" x2="756.3" y2="911.69" xlink:href="#linear-gradient"/></defs><g id="Background"><rect class="cls-1" width="1080" height="1080"/></g><g id="Main"><polygon class="cls-2" points="323.56 66.93 323.56 138.57 540.28 350.83 754.77 138.57 754.77 66.93 688.48 131.21 395.88 131.21 323.56 66.93"/><path class="cls-3" d="M395.88,263.79l64.28,64.28s-18.75,18.08-51.56,6.69S395.88,263.79,395.88,263.79Z"/><path class="cls-4" d="M688.42,263.79l-64.28,64.28s18.75,18.08,51.56,6.69S688.42,263.79,688.42,263.79Z"/><path class="cls-5" d="M754.77,369.58a56.76,56.76,0,0,1-1,5.81c-3.18,14.13-15.1,49.23-55.19,49.77H435.38S324.9,427.84,323.56,543s0,476.75,0,476.75,433.56-40.18,431.21-464"/><path class="cls-6" d="M620.19,939.9l54.74-56.41h46.53s33.82-.84,34.82,28.2-32.14,27.37-32.14,27.37Z"/></g></svg>