<?xml version="1.0" encoding="utf-8"?>
<!-- Generator: Adobe Illustrator 24.1.1, SVG Export Plug-In . SVG Version: 6.00 Build 0)  -->
<svg version="1.1" xmlns="http://www.w3.org/2000/svg" xmlns:xlink="http://www.w3.org/1999/xlink" x="0px" y="0px"
	 viewBox="0 0 477.9 477.9" style="enable-background:new 0 0 477.9 477.9;" xml:space="preserve">
<style type="text/css">
	.st0{opacity:0;}
</style>
<g id="Layer_2">
	<rect class="st0" width="477.9" height="477.9"/>
</g>
<g id="Capa_1">
	<g>
		<g>
			<path d="M359.9,279.3c-5.6,0-10.1,4.5-10.1,10.1v60.5c0,5.6-4.5,10.1-10.1,10.1H138.1c-5.6,0-10.1-4.5-10.1-10.1v-60.5
				c0-5.6-4.5-10.1-10.1-10.1c-5.6,0-10.1,4.5-10.1,10.1v60.5c0,16.7,13.5,30.2,30.2,30.2h201.6c16.7,0,30.2-13.5,30.2-30.2v-60.5
				C370,283.8,365.5,279.3,359.9,279.3z"/>
		</g>
	</g>
	<g>
		<g>
			<path d="M296.2,272.1c-3.9-3.8-10.1-3.8-14,0L249,305.3V107.9c0-5.6-4.5-10.1-10.1-10.1c-5.6,0-10.1,4.5-10.1,10.1v197.5
				l-33.2-33.2c-4-3.9-10.4-3.8-14.3,0.2c-3.8,3.9-3.8,10.1,0,14l50.4,50.4c3.9,3.9,10.3,4,14.3,0c0,0,0,0,0,0l50.4-50.4
				C300.4,282.4,300.2,276,296.2,272.1z"/>
		</g>
	</g>
</g>
</svg>
