<?xml version="1.0" encoding="utf-8"?>
<!-- Generator: Adobe Illustrator 24.1.1, SVG Export Plug-In . SVG Version: 6.00 Build 0)  -->
<svg version="1.1" xmlns="http://www.w3.org/2000/svg" xmlns:xlink="http://www.w3.org/1999/xlink" x="0px" y="0px"
	 viewBox="0 0 512 512" style="enable-background:new 0 0 512 512;" xml:space="preserve">
<style type="text/css">
	.st0{fill:#2196F3;}
	.st1{fill:#1E88E5;}
	.st2{fill:#F44336;}
	.st3{fill:#E53935;}
	.st4{fill:#4CAF50;}
	.st5{fill:#43A047;}
	.st6{fill:#FFC107;}
	.st7{fill:#FFB300;}
</style>
<g id="Layer_1">
	<g>
		<path class="st0" d="M507.9,208.6c2.3,0,4.1,1.8,4.1,4.1V256c0,16.2-1.5,32-4.4,47.4C485.3,422.7,380.2,512.9,254.2,512
			C112.8,511-0.3,396.8,0,255.4C0.3,114.3,114.8,0,256,0c69.2,0,131.9,27.4,178,72c1.7,1.6,1.7,4.3,0.1,5.9l-61.2,61.2
			c-1.6,1.6-4.1,1.6-5.7,0.1c-28.9-27.5-68.1-44.4-111.1-44.4c-89,0-160.6,71.1-161.2,160.1c-0.6,89.6,71.8,162.3,161.2,162.3
			c72.5,0,133.9-47.9,154.1-113.8h-150c-2.3,0-4.1-1.8-4.1-4.1v-86.5c0-2.3,1.8-4.1,4.1-4.1L507.9,208.6L507.9,208.6z"/>
		<g>
			<path class="st1" d="M507.9,208.6H477c2.3,0,4.1,1.8,4.1,4.1V256c0,16.2-1.5,32-4.4,47.4c-21.3,113.8-117.9,201.1-236.2,208.1
				c4.5,0.3,9.1,0.4,13.7,0.5c126,0.9,231.1-89.3,253.4-208.6c2.9-15.4,4.4-31.2,4.4-47.4v-43.3C512,210.5,510.2,208.6,507.9,208.6z
				"/>
		</g>
		<path class="st2" d="M109.6,188.5l-77.7-56.2C75.4,53.4,159.5,0,256,0c69.2,0,131.9,27.4,178,72c1.7,1.6,1.7,4.3,0.1,5.9
			l-61.2,61.2c-1.6,1.6-4.1,1.6-5.7,0.1c-28.9-27.5-68.1-44.4-111.1-44.4C191.1,94.8,135.1,133.2,109.6,188.5L109.6,188.5z"/>
		<path class="st3" d="M87.1,172.3l22.4,16.2c23.3-50.5,72-86.9,129.7-92.8c0.4,0,0.9-0.1,1.3-0.1c-5.1-0.5-10.2-0.7-15.4-0.7
			C166.4,94.8,115.3,125.7,87.1,172.3L87.1,172.3z"/>
		<path class="st3" d="M403.1,72c1.7,1.6,1.7,4.3,0.1,5.9l-49.7,49.7c4.8,3.6,9.3,7.5,13.6,11.6c1.6,1.5,4.2,1.5,5.7-0.1l61.2-61.2
			c1.6-1.6,1.6-4.3-0.1-5.9C387.9,27.4,325.2,0,256,0c-5.2,0-10.3,0.2-15.5,0.5C303.6,4.2,360.5,30.8,403.1,72z"/>
		<path class="st4" d="M443.8,430C397,480.4,330.2,512,256,512c-100.2,0-187-57.6-229-141.5l79.4-54.4
			c23.8,59.3,81.8,101.1,149.6,101.1c42.5,0,81.2-16.5,110-43.4L443.8,430z"/>
		<path class="st5" d="M106.4,316.1l-23.4,16c27.2,50.6,80.6,85.1,142.1,85.1c5.2,0,10.3-0.3,15.4-0.7
			C179.5,410.7,128.3,370.8,106.4,316.1L106.4,316.1z"/>
		<path class="st5" d="M256,512c74.2,0,141-31.6,187.8-82l-19-13.8c-43.9,54.6-109.7,90.9-184.2,95.3C245.7,511.8,250.8,512,256,512
			z"/>
		<path class="st6" d="M94.8,256c0,21.2,4.1,41.5,11.6,60.1L27,370.5C9.7,336,0,297.2,0,256c0-44.9,11.5-87,31.8-123.7l77.7,56.2
			C100.1,209,94.8,231.9,94.8,256z"/>
		<path class="st7" d="M82.9,332.1l23.4-16c-7.5-18.6-11.6-38.9-11.6-60.1c0-24.1,5.3-47,14.8-67.5l-22.4-16.2
			c-14.6,24.1-23,52.3-23.2,82.6C63.7,282.8,70.6,309.2,82.9,332.1L82.9,332.1z"/>
	</g>
</g>
<g id="Layer_2">
</g>
</svg>
