<?xml version="1.0" encoding="utf-8"?>
<!-- Generator: Adobe Illustrator 24.1.1, SVG Export Plug-In . SVG Version: 6.00 Build 0)  -->
<svg version="1.1" xmlns="http://www.w3.org/2000/svg" xmlns:xlink="http://www.w3.org/1999/xlink" x="0px" y="0px"
	 viewBox="0 0 1084.1 1084.1" style="enable-background:new 0 0 1084.1 1084.1;" xml:space="preserve">
<style type="text/css">
	.st0{opacity:0;fill:#FFFFFF;}
	.st1{opacity:0;}
	.st2{fill:none;stroke:#FFFFFF;stroke-width:4.05;stroke-miterlimit:10;}
	.st3{fill:#FFFFFF;stroke:#FFFFFF;stroke-width:4.05;stroke-miterlimit:10;}
</style>
<g id="Layer_2">
	<rect class="st0" width="1081" height="1081"/>
</g>
<g id="Layer_1">
	<g id="Layer_3" class="st1">
		<rect x="2" y="2" class="st2" width="8.4" height="8.4"/>
	</g>
	<g id="Layer_2_1_">
		<path class="st3" d="M997.4,455.4H541.9v171.4h277.2C782.6,745.1,672.4,831,542.2,831C382,831,252.3,701.2,252.3,541.2
			S382,251.3,542.2,251.3c78-0.1,152.8,31.4,207.3,87.3L872,216c-87-88.4-205.8-138.2-329.9-138C286.4,78,79,285.4,79,541.2
			s207.4,463.2,463.2,463.2s463.2-207.4,463.2-463.2C1005.3,512.4,1002.6,483.7,997.4,455.4z"/>
	</g>
</g>
</svg>
